<?xml version="1.0" encoding="utf-8"?>
<!-- Generator: Adobe Illustrator 17.0.0, SVG Export Plug-In . SVG Version: 6.00 Build 0)  -->
<!DOCTYPE svg PUBLIC "-//W3C//DTD SVG 1.1//EN" "http://www.w3.org/Graphics/SVG/1.1/DTD/svg11.dtd">
<svg version="1.1" id="Capa_1" xmlns="http://www.w3.org/2000/svg" xmlns:xlink="http://www.w3.org/1999/xlink" x="0px" y="0px"
	 width="31px" height="31px" viewBox="0 0 31 31" enable-background="new 0 0 31 31" xml:space="preserve">
<g>
	<g>
		<path fill="#FFFFFF" d="M28.211,6.59l-16.22,0.009c-0.93-0.002-1.687,0.755-1.685,1.687V9.06C9.962,8.911,9.534,8.807,8.989,8.807
			c-0.682,0-1.247,0.153-1.31,0.173C7.547,9.017,7.428,9.081,7.325,9.171l-6.182,5.416c-0.202,0.179-0.316,0.438-0.309,0.708
			l0.054,8.917c0.012,0.475,0.558,0.862,1.034,0.884c0.025,0,2.33,0.097,4.367,0.097c1.242,0,2.118-0.032,2.678-0.103
			c1.63-0.205,2.342-0.686,2.638-0.993c0.306-0.224,0.579-0.444,0.864-0.665c-0.237,0.87,0.159,1.818,0.993,2.239
			c0.27,0.138,0.573,0.211,0.873,0.211c0.535,0,1.025-0.222,1.383-0.59c0.176,0.239,0.4,0.447,0.682,0.593
			c0.271,0.133,0.573,0.207,0.875,0.207c0.732,0,1.394-0.409,1.725-1.062l1.282-2.524c0.234-0.463,0.283-0.988,0.121-1.478
			c-0.052-0.159-0.135-0.308-0.227-0.446l8.025,0.005c0.93,0,1.688-0.757,1.69-1.685l0.006-10.606
			C29.896,7.364,29.141,6.59,28.211,6.59z M16.262,21.743l-1.279,2.527c-0.173,0.349-0.623,0.498-0.974,0.322
			c-0.357-0.182-0.499-0.62-0.32-0.976l1.052-2.073c0,0,0.345-0.841,0.895-0.85c0.107,0.003,0.211,0.026,0.309,0.077
			c0.172,0.089,0.3,0.234,0.36,0.42C16.366,21.375,16.354,21.57,16.262,21.743z M14.246,19.52l-1.157,1.06H13.1
			c-0.725,0.628-1.587,1.325-2.648,2.109c-0.08,0.058-0.086,0.052-0.142,0.132c-0.003,0.003-0.354,0.316-1.564,0.466
			c-0.331,0.041-1.023,0.035-2.455,0.035c-1.245,0-2.796,0.018-3.643-0.011l0.014-7.638l5.689-4.986
			c0.153-0.029,0.386-0.063,0.639-0.063c0.371,0,0.627,0.066,0.764,0.202v6.305c0,0.32,0.168,0.614,0.444,0.78
			c0.032,0.018,0.069,0.015,0.103,0.031v0.067l0.084-0.043c0.234,0.078,0.487,0.089,0.711-0.035c1.414-0.766,4.093-1.984,5.26-1.984
			c0.052,0,0.097,0,0.127,0.006c0.005,0.011,0.009,0.017,0.015,0.026C16.522,16.101,16.639,17.152,14.246,19.52z M19.198,21.954
			l-1.279,2.527c-0.175,0.349-0.627,0.496-0.976,0.32c-0.355-0.179-0.496-0.619-0.317-0.974l1.281-2.527
			c0.124-0.245,0.371-0.4,0.646-0.4c0.115,0,0.225,0.029,0.329,0.081c0.175,0.089,0.302,0.237,0.36,0.418
			C19.304,21.587,19.29,21.781,19.198,21.954z M28.767,18.898c-0.002,0.314-0.253,0.562-0.562,0.562l-11.452-0.003
			c0.936-1.155,1.474-2.19,1.562-3.088c0.066-0.711-0.144-1.164-0.299-1.389c-0.191-0.362-0.642-0.853-1.662-0.853
			c-1.334,0-3.414,0.873-4.785,1.526v-2.517l17.199-0.005L28.767,18.898z M28.769,9.798L11.429,9.79V8.283
			c0-0.311,0.251-0.562,0.561-0.562l16.222-0.012c0.306,0,0.562,0.273,0.562,0.582L28.769,9.798z"/>
		<polygon fill="#FFFFFF" points="27.491,18.419 27.479,16.895 23.039,16.892 23.052,18.419 		"/>
	</g>
</g>
<g>
	<path fill="#FFFFFF" d="M22.199,4.229H8.53L4.429,8.33v2.264c0,1.272,0.873,2.332,2.05,2.638V26.1h17.77V13.232
		c1.178-0.306,2.05-1.365,2.05-2.638V8.33L22.199,4.229z M22.199,24.733v-9.568h-5.468v9.568H7.846V13.232
		c1.177-0.306,2.05-1.365,2.05-2.638c0,1.51,1.224,2.734,2.734,2.734c1.51,0,2.734-1.224,2.734-2.734
		c0,1.51,1.224,2.734,2.734,2.734c1.51,0,2.734-1.224,2.734-2.734c0,1.272,0.873,2.332,2.05,2.638v11.501L22.199,24.733
		L22.199,24.733z M18.098,19.265v-2.734h2.734v2.734L18.098,19.265L18.098,19.265z M8.53,19.265h5.468v-4.101H8.53V19.265z
		 M9.897,16.531h2.734v1.367H9.897L9.897,16.531z"/>
</g>
<g>
	<g>
		<path fill="#FFFFFF" d="M10.069,15.856h1.765v-1.754h-1.765V15.856z M14.482,15.856h1.765v-1.754h-1.765V15.856z M18.894,15.856
			h1.765v-1.754h-1.765V15.856z M10.069,18.487h1.765v-1.754h-1.765V18.487z M14.482,18.487h1.765v-1.754h-1.765V18.487z
			 M18.894,18.487h1.765v-1.754h-1.765V18.487z M10.069,21.118h1.765v-1.754h-1.765V21.118z M14.482,21.118h1.765v-1.754h-1.765
			V21.118z M18.894,21.118h1.765v-1.754h-1.765V21.118z M23.307,7.962h-3.53V7.085c0-0.485-0.395-0.877-0.883-0.877
			c-0.488,0-0.883,0.392-0.883,0.877v0.877h-5.295V7.085c0-0.485-0.395-0.877-0.883-0.877c-0.488,0-0.883,0.392-0.883,0.877v0.877
			h-3.53c-1.463,0-2.648,1.178-2.648,2.631v13.156c0,1.453,1.185,2.631,2.648,2.631h15.886c1.462,0,2.647-1.178,2.647-2.631V10.594
			C25.954,9.14,24.769,7.962,23.307,7.962z M24.189,23.749c0,0.484-0.396,0.877-0.883,0.877H7.421c-0.487,0-0.883-0.393-0.883-0.877
			V10.594c0-0.484,0.396-0.877,0.883-0.877h3.53v0.877c0,0.485,0.395,0.877,0.883,0.877c0.488,0,0.883-0.392,0.883-0.877V9.716
			h5.295v0.877c0,0.485,0.395,0.877,0.883,0.877c0.488,0,0.883-0.392,0.883-0.877V9.716h3.53c0.487,0,0.883,0.393,0.883,0.877
			V23.749z"/>
	</g>
</g>
<g>
	<g>
		<g>
			<path fill="#FFFFFF" d="M15.173,12.632c-0.256-0.267-0.672-0.268-0.929-0.001l-2.159,2.252l-0.847-0.884
				c-0.256-0.267-0.672-0.267-0.927,0c-0.256,0.267-0.256,0.7,0,0.967l1.312,1.367c0.127,0.134,0.295,0.201,0.463,0.201
				s0.336-0.067,0.464-0.2l2.624-2.734C15.428,13.332,15.428,12.899,15.173,12.632z"/>
		</g>
	</g>
	<g>
		<g>
			<path fill="#FFFFFF" d="M15.173,18.101c-0.256-0.267-0.672-0.268-0.929-0.001l-2.159,2.252l-0.847-0.883
				c-0.256-0.267-0.672-0.267-0.927,0c-0.256,0.267-0.256,0.7,0,0.967l1.312,1.367c0.127,0.133,0.295,0.2,0.463,0.2
				s0.336-0.067,0.464-0.2l2.624-2.734C15.428,18.801,15.428,18.367,15.173,18.101z"/>
		</g>
	</g>
	<g>
		<g>
			<path fill="#FFFFFF" d="M19.955,13.799h-2.624c-0.362,0-0.656,0.306-0.656,0.684c0,0.377,0.294,0.684,0.656,0.684h2.624
				c0.362,0,0.656-0.306,0.656-0.684C20.611,14.105,20.317,13.799,19.955,13.799z"/>
		</g>
	</g>
	<g>
		<g>
			<path fill="#FFFFFF" d="M19.955,19.267h-2.624c-0.362,0-0.656,0.306-0.656,0.684s0.294,0.684,0.656,0.684h2.624
				c0.362,0,0.656-0.306,0.656-0.684S20.317,19.267,19.955,19.267z"/>
		</g>
	</g>
	<g>
		<g>
			<path fill="#FFFFFF" d="M21.923,6.963h-2.624V6.28c0-0.377-0.294-0.684-0.656-0.684H17.22c-0.272-0.796-1.001-1.367-1.856-1.367
				c-0.855,0-1.585,0.571-1.856,1.367h-1.423c-0.362,0-0.656,0.306-0.656,0.684v0.684H8.805c-0.723,0-1.312,0.614-1.312,1.367
				v16.405c0,0.753,0.589,1.367,1.312,1.367h13.118c0.723,0,1.312-0.614,1.312-1.367V8.33C23.235,7.577,22.646,6.963,21.923,6.963z
				 M12.741,6.963h1.312c0.362,0,0.656-0.306,0.656-0.684s0.294-0.684,0.656-0.684c0.362,0,0.656,0.306,0.656,0.684
				s0.294,0.684,0.656,0.684h1.312V8.33h-5.247V6.963z M21.923,24.735H8.805V8.33h2.624v0.684c0,0.377,0.294,0.684,0.656,0.684
				h6.559c0.362,0,0.656-0.306,0.656-0.684V8.33h2.624V24.735z"/>
		</g>
	</g>
</g>
<g>
	<g>
		<path fill="#FFFFFF" d="M20.008,4.018H10.72c-0.889,0-1.606,0.721-1.606,1.608v18.861c0,0.886,0.718,1.606,1.606,1.606h9.288
			c0.887,0,1.606-0.72,1.606-1.606V5.626C21.615,4.739,20.895,4.018,20.008,4.018z M13.072,4.994h4.585
			c0.116,0,0.21,0.173,0.21,0.387c0,0.214-0.094,0.388-0.21,0.388h-4.585c-0.117,0-0.209-0.174-0.209-0.388
			C12.863,5.167,12.956,4.994,13.072,4.994z M15.365,24.506c-0.566,0-1.026-0.46-1.026-1.026c0-0.566,0.46-1.025,1.026-1.025
			c0.564,0,1.024,0.459,1.024,1.025C16.389,24.046,15.929,24.506,15.365,24.506z M20.411,20.991H10.318V6.731h10.093L20.411,20.991
			L20.411,20.991z"/>
	</g>
	<g>
		<path fill="#FFFFFF" d="M17.026,13.275c-0.383-0.212-0.79-0.373-1.194-0.54c-0.234-0.097-0.458-0.21-0.655-0.367
			c-0.389-0.311-0.315-0.815,0.141-1.014c0.129-0.056,0.264-0.075,0.401-0.083c0.528-0.028,1.03,0.069,1.508,0.298
			c0.238,0.115,0.317,0.079,0.397-0.169c0.085-0.262,0.155-0.528,0.234-0.792c0.052-0.177-0.012-0.294-0.179-0.369
			c-0.307-0.135-0.621-0.232-0.952-0.284c-0.432-0.067-0.432-0.069-0.434-0.502C16.292,8.84,16.292,8.84,15.679,8.84
			c-0.089,0-0.177-0.002-0.266,0c-0.286,0.008-0.335,0.058-0.343,0.347c-0.004,0.129,0,0.258-0.002,0.389
			c-0.002,0.383-0.004,0.377-0.371,0.51c-0.887,0.323-1.436,0.928-1.494,1.896c-0.052,0.857,0.395,1.436,1.099,1.857
			c0.434,0.26,0.913,0.413,1.373,0.617c0.179,0.079,0.351,0.169,0.5,0.294c0.442,0.365,0.361,0.972-0.163,1.202
			c-0.28,0.123-0.577,0.153-0.881,0.115c-0.47-0.058-0.92-0.181-1.343-0.401c-0.248-0.129-0.321-0.095-0.405,0.173
			c-0.073,0.232-0.137,0.466-0.202,0.7c-0.087,0.315-0.054,0.389,0.246,0.536c0.383,0.186,0.792,0.28,1.21,0.347
			c0.327,0.052,0.337,0.067,0.341,0.405c0.002,0.153,0.002,0.309,0.004,0.462c0.002,0.194,0.095,0.307,0.294,0.311
			c0.226,0.004,0.454,0.004,0.68-0.002c0.186-0.004,0.28-0.105,0.28-0.292c0-0.21,0.01-0.421,0.002-0.631
			c-0.01-0.214,0.083-0.323,0.288-0.379c0.474-0.129,0.877-0.383,1.188-0.762C18.577,15.485,18.248,13.95,17.026,13.275z"/>
	</g>
</g>
</svg>
