<?xml version="1.0" encoding="utf-8"?>
<!-- Generator: Adobe Illustrator 16.0.0, SVG Export Plug-In . SVG Version: 6.00 Build 0)  -->
<!DOCTYPE svg PUBLIC "-//W3C//DTD SVG 1.1//EN" "http://www.w3.org/Graphics/SVG/1.1/DTD/svg11.dtd">
<svg version="1.1" id="Layer_1" xmlns="http://www.w3.org/2000/svg" xmlns:xlink="http://www.w3.org/1999/xlink" x="0px" y="0px"
	 width="25px" height="32px" viewBox="0 0 25 32" enable-background="new 0 0 25 32" xml:space="preserve">
<g>
	<defs>
		<rect id="SVGID_1_" width="25" height="32"/>
	</defs>
	<clipPath id="SVGID_2_">
		<use xlink:href="#SVGID_1_"  overflow="visible"/>
	</clipPath>
	<path clip-path="url(#SVGID_2_)" fill="#7F31E5" d="M19,12.5V26h4c0.552,0,1-0.445,1-0.993V8h-4.002C18.895,8,18,7.113,18,5.994V1
		H7.996C7.446,1,7,1.455,7,1.995V5h5.5H13l6,7V12.5z M6,5V2.007C6,0.898,6.897,0,8.003,0H18.5H19l6,7v0.5v17.509
		C25,26.102,24.106,27,23.003,27H19v3.009C19,31.102,18.106,32,17.003,32H1.997C0.891,32,0,31.101,0,29.993V7.007
		C0,5.898,0.897,5,2.003,5H6z M19,1.5v4.491C19,6.548,19.451,7,19.997,7H23.7L19,1.5z M12,6H1.996C1.446,6,1,6.455,1,6.995v23.01
		C1,30.554,1.455,31,2,31h15c0.552,0,1-0.445,1-0.993V13h-4.002C12.895,13,12,12.113,12,10.994V6z M13,6.5v4.491
		C13,11.548,13.451,12,13.997,12H17.7L13,6.5z"/>
</g>
</svg>
