<?xml version="1.0" encoding="utf-8"?>
<!-- Generator: Adobe Illustrator 16.0.0, SVG Export Plug-In . SVG Version: 6.00 Build 0)  -->
<!DOCTYPE svg PUBLIC "-//W3C//DTD SVG 1.1//EN" "http://www.w3.org/Graphics/SVG/1.1/DTD/svg11.dtd">
<svg version="1.1" id="Capa_1" xmlns="http://www.w3.org/2000/svg" xmlns:xlink="http://www.w3.org/1999/xlink" x="0px" y="0px"
	 width="612px" height="792px" viewBox="0 0 612 792" enable-background="new 0 0 612 792" xml:space="preserve">
<g>
	<path fill="#00A1D5" d="M221.586,237.724h-52.759v-52.759c0-5.835-4.727-10.551-10.552-10.551s-10.552,4.716-10.552,10.551v52.759
		H94.965c-5.824,0-10.552,4.717-10.552,10.552s4.728,10.552,10.552,10.552h52.759v52.759c0,5.835,4.727,10.551,10.552,10.551
		s10.552-4.716,10.552-10.551v-52.759h52.759c5.824,0,10.551-4.717,10.551-10.552S227.411,237.724,221.586,237.724z"/>
	<path fill="#00A1D5" d="M517.034,237.724h-126.62c-5.825,0-10.552,4.717-10.552,10.552s4.727,10.552,10.552,10.552h126.62
		c5.825,0,10.552-4.717,10.552-10.552S522.859,237.724,517.034,237.724z"/>
	<path fill="#00A1D5" d="M316.552,90h-21.104H0v295.448v21.104V702h295.448h21.104H612V406.552v-21.104V90H316.552z M21.104,111.104
		h274.345v274.345H21.104V111.104z M21.104,680.896V406.552h274.345v274.345H21.104z M590.896,680.896H316.552V406.552h274.345
		V680.896z M316.552,385.448V111.104h274.345v274.345H316.552z"/>
	<path fill="#00A1D5" d="M390.414,585.931h126.62c5.825,0,10.552-4.716,10.552-10.552c0-5.835-4.727-10.552-10.552-10.552h-126.62
		c-5.825,0-10.552,4.717-10.552,10.552C379.862,581.215,384.589,585.931,390.414,585.931z"/>
	<path fill="#00A1D5" d="M390.414,522.621h126.62c5.825,0,10.552-4.717,10.552-10.552c0-5.836-4.727-10.552-10.552-10.552h-126.62
		c-5.825,0-10.552,4.716-10.552,10.552C379.862,517.904,384.589,522.621,390.414,522.621z"/>
	<path fill="#00A1D5" d="M218.495,483.506c-4.126-4.126-10.794-4.126-14.92,0l-45.298,45.298l-45.298-45.298
		c-4.126-4.126-10.794-4.126-14.92,0c-4.125,4.125-4.125,10.794,0,14.92l45.299,45.299l-45.299,45.298
		c-4.125,4.126-4.125,10.795,0,14.921c2.058,2.057,4.759,3.091,7.46,3.091s5.403-1.034,7.46-3.091l45.298-45.299l45.298,45.299
		c2.058,2.057,4.759,3.091,7.46,3.091c2.701,0,5.402-1.034,7.46-3.091c4.125-4.126,4.125-10.795,0-14.921l-45.299-45.298
		l45.299-45.299C222.62,494.3,222.62,487.631,218.495,483.506z"/>
</g>
</svg>
