<?xml version="1.0" encoding="utf-8"?>
<!-- Generator: Adobe Illustrator 17.0.0, SVG Export Plug-In . SVG Version: 6.00 Build 0)  -->
<!DOCTYPE svg PUBLIC "-//W3C//DTD SVG 1.1//EN" "http://www.w3.org/Graphics/SVG/1.1/DTD/svg11.dtd">
<svg version="1.1" id="Capa_1" xmlns="http://www.w3.org/2000/svg" xmlns:xlink="http://www.w3.org/1999/xlink" x="0px" y="0px"
	 width="30px" height="30px" viewBox="0 0 30 30" enable-background="new 0 0 30 30" xml:space="preserve">
<g id="Page-1">
	<g id="icon-111-search">
		<path id="search" fill="#919292" d="M17.178,19.995c-1.263,0.9-2.807,1.429-4.476,1.429c-4.264,0-7.721-3.457-7.721-7.721
			s3.457-7.721,7.721-7.721s7.721,3.457,7.721,7.721c0,1.668-0.529,3.213-1.429,4.476l5.073,5.073c0.5,0.5,0.496,1.299,0,1.795
			l-0.021,0.021c-0.495,0.495-1.3,0.496-1.795,0L17.178,19.995L17.178,19.995z M12.703,19.607c3.261,0,5.904-2.644,5.904-5.904
			s-2.644-5.904-5.904-5.904s-5.904,2.644-5.904,5.904S9.442,19.607,12.703,19.607L12.703,19.607z"/>
	</g>
</g>
</svg>
