<?xml version="1.0" encoding="utf-8"?>
<!-- Generator: Adobe Illustrator 16.0.0, SVG Export Plug-In . SVG Version: 6.00 Build 0)  -->
<!DOCTYPE svg PUBLIC "-//W3C//DTD SVG 1.1//EN" "http://www.w3.org/Graphics/SVG/1.1/DTD/svg11.dtd">
<svg version="1.1" id="Layer_1" xmlns="http://www.w3.org/2000/svg" xmlns:xlink="http://www.w3.org/1999/xlink" x="0px" y="0px"
	 width="24px" height="16px" viewBox="0 0 24 16" enable-background="new 0 0 24 16" xml:space="preserve">
<g>
	<defs>
		<rect id="SVGID_1_" width="24" height="16"/>
	</defs>
	<clipPath id="SVGID_2_">
		<use xlink:href="#SVGID_1_"  overflow="visible"/>
	</clipPath>
	<path clip-path="url(#SVGID_2_)" fill="#EC008B" d="M23,6l-2-4c-0.2-0.5-0.7-1-1.3-1H16c0-0.6-0.4-1-1-1H1C0.4,0,0,0.4,0,1v12
		c0,0.6,0.4,1,1,1h2.2c0.4,1.2,1.5,2,2.8,2s2.4-0.8,2.8-2H16h0.2c0.399,1.2,1.5,2,2.8,2s2.4-0.8,2.8-2H23c0.6,0,1-0.4,1-1V7
		C24,6.4,23.6,6,23,6 M6,15c-1.1,0-2-0.9-2-2s0.9-2,2-2s2,0.9,2,2S7.1,15,6,15 M15,12H8.8c-0.4-1.2-1.5-2-2.8-2s-2.4,0.8-2.8,2H2V9
		h13V12z M15,8H2V2h13V8z M16,3h3.5L21,6h-5V3z M19,15c-1.1,0-2-0.9-2-2s0.9-2,2-2s2,0.9,2,2S20.1,15,19,15 M22,12h-0.2
		c-0.399-1.2-1.5-2-2.8-2s-2.4,0.8-2.8,2H16V7h6V12z"/>
	<path clip-path="url(#SVGID_2_)" fill="#EC008B" d="M6,12c0.552,0,1,0.448,1,1s-0.448,1-1,1s-1-0.448-1-1S5.448,12,6,12"/>
	<path clip-path="url(#SVGID_2_)" fill="#EC008B" d="M19,12c0.552,0,1,0.448,1,1s-0.448,1-1,1s-1-0.448-1-1S18.448,12,19,12"/>
</g>
</svg>
