<?xml version="1.0" encoding="utf-8"?>
<!-- Generator: Adobe Illustrator 16.0.0, SVG Export Plug-In . SVG Version: 6.00 Build 0)  -->
<!DOCTYPE svg PUBLIC "-//W3C//DTD SVG 1.1//EN" "http://www.w3.org/Graphics/SVG/1.1/DTD/svg11.dtd">
<svg version="1.1" id="Layer_1" xmlns="http://www.w3.org/2000/svg" xmlns:xlink="http://www.w3.org/1999/xlink" x="0px" y="0px"
	 width="630.528px" height="315.187px" viewBox="0 0 630.528 315.187" enable-background="new 0 0 630.528 315.187"
	 xml:space="preserve">
<g>
	<defs>
		<rect id="SVGID_1_" width="630.528" height="315.187"/>
	</defs>
	<clipPath id="SVGID_2_">
		<use xlink:href="#SVGID_1_"  overflow="visible"/>
	</clipPath>
	<path clip-path="url(#SVGID_2_)" fill="#FF9C00" d="M105.062,231.014c-46.387,0-84.173-37.785-84.173-84.172
		s37.786-84.173,84.173-84.173c46.387,0,84.173,37.786,84.173,84.173C189.235,193.382,151.449,231.014,105.062,231.014
		 M105.062,104.909c-23.194,0-42.086,18.893-42.086,42.086c0,23.194,18.892,42.087,42.086,42.087
		c23.194,0,42.086-18.893,42.086-42.087C147.148,123.802,128.256,104.909,105.062,104.909"/>
	<path clip-path="url(#SVGID_2_)" fill="#FF9C00" d="M462.489,315.187h-42.086c0-57.907-47.155-105.062-105.062-105.062
		S210.279,257.28,210.279,315.187h-42.087c0-81.101,66.048-147.149,147.149-147.149
		C396.441,168.038,462.489,234.086,462.489,315.187"/>
	<path clip-path="url(#SVGID_2_)" fill="#FF9C00" d="M525.619,231.014c-46.387,0-84.173-37.785-84.173-84.172
		s37.786-84.173,84.173-84.173s84.173,37.786,84.173,84.173C609.639,193.382,572.006,231.014,525.619,231.014 M525.619,104.909
		c-23.194,0-42.086,18.893-42.086,42.086c0,23.194,18.892,42.087,42.086,42.087s42.086-18.893,42.086-42.087
		C567.705,123.802,548.813,104.909,525.619,104.909"/>
	<path clip-path="url(#SVGID_2_)" fill="#FF9C00" d="M315.341,210.125c-57.907,0-105.062-47.155-105.062-105.062
		C210.279,47.155,257.434,0,315.341,0s105.062,47.155,105.062,105.063C420.402,162.969,373.248,210.125,315.341,210.125
		 M315.341,41.933c-34.714,0-63.13,28.262-63.13,63.13c0,34.867,28.263,63.129,63.13,63.129s63.13-28.262,63.13-63.129
		C378.471,70.195,350.055,41.933,315.341,41.933"/>
	<path clip-path="url(#SVGID_2_)" fill="#FF9C00" d="M462.489,315.187h-42.086v-21.043c0-57.907,47.155-105.063,105.062-105.063
		s105.062,47.156,105.062,105.063h-42.086c0-34.714-28.262-63.13-63.13-63.13c-34.867,0-63.129,28.263-63.129,63.13v21.043H462.489z
		"/>
	<path clip-path="url(#SVGID_2_)" fill="#FF9C00" d="M210.278,315.187h-42.086v-21.043c0-34.714-28.263-63.13-63.13-63.13
		c-34.867,0-63.13,28.263-63.13,63.13H0c0-57.907,47.155-105.063,105.062-105.063c57.907,0,105.062,47.156,105.062,105.063v21.043
		H210.278z"/>
</g>
</svg>
