<?xml version="1.0" encoding="utf-8"?>
<!-- Generator: Adobe Illustrator 16.0.0, SVG Export Plug-In . SVG Version: 6.00 Build 0)  -->
<!DOCTYPE svg PUBLIC "-//W3C//DTD SVG 1.1//EN" "http://www.w3.org/Graphics/SVG/1.1/DTD/svg11.dtd">
<svg version="1.1" id="Capa_1" xmlns="http://www.w3.org/2000/svg" xmlns:xlink="http://www.w3.org/1999/xlink" x="0px" y="0px"
	 width="612px" height="792px" viewBox="0 0 612 792" enable-background="new 0 0 612 792" xml:space="preserve">
<g>
	<path fill="#39C969" d="M332.475,260.547H443.3v110.381L612,248.233L443.3,125.538v110.381H332.475
		c-88.266,0-160.08,71.814-160.08,160.081c0,74.684-60.769,135.453-135.453,135.453H12.314C5.504,531.453,0,536.957,0,543.767
		s5.504,12.313,12.314,12.313h24.627c88.266,0,160.081-71.814,160.081-160.08C197.022,321.316,257.791,260.547,332.475,260.547z
		 M467.928,173.907l102.205,74.327L467.928,322.56V173.907z"/>
	<path fill="#39C969" d="M12.314,260.547h24.627c33.408,0,65.485,12.24,90.335,34.466c2.352,2.106,5.295,3.14,8.213,3.14
		c3.374,0,6.748-1.379,9.174-4.101c4.531-5.073,4.101-12.855-0.96-17.387c-29.369-26.278-67.283-40.747-106.762-40.747H12.314
		C5.504,235.919,0,241.424,0,248.233S5.504,260.547,12.314,260.547z"/>
	<path fill="#39C969" d="M443.3,531.453H332.475c-33.062,0-64.894-12.019-89.62-33.839c-5.061-4.495-12.856-4.026-17.375,1.096
		c-4.495,5.098-4.014,12.881,1.096,17.375c29.233,25.798,66.852,39.995,105.912,39.995h110.825v110.382l168.7-122.695L443.3,421.071
		V531.453z M467.928,469.44l102.205,74.326l-102.205,74.326V469.44z"/>
</g>
</svg>
