<?xml version="1.0" encoding="utf-8"?>
<!-- Generator: Adobe Illustrator 16.0.0, SVG Export Plug-In . SVG Version: 6.00 Build 0)  -->
<!DOCTYPE svg PUBLIC "-//W3C//DTD SVG 1.1//EN" "http://www.w3.org/Graphics/SVG/1.1/DTD/svg11.dtd">
<svg version="1.1" id="Layer_1" xmlns="http://www.w3.org/2000/svg" xmlns:xlink="http://www.w3.org/1999/xlink" x="0px" y="0px"
	 width="512px" height="512px" viewBox="0 0 512 512" enable-background="new 0 0 512 512" xml:space="preserve">
<g id="surface1">
	<path fill="#9A9800" d="M456.816,160.661h-65.332v-50.328H496.98c0.008,0,0.016,0,0.02,0c8.285,0,15-6.719,15-15
		c0-4.379-1.871-8.316-4.863-11.059l-29.109-29.109l29.562-29.559c4.289-4.289,5.57-10.742,3.25-16.344
		C508.52,3.657,503.051,0,496.984,0h-120.5c-8.281,0-14.996,6.715-14.996,15v145.66h-17.137c-30.418,0-55.164,24.75-55.164,55.168
		v31.262c-7.551-3.887-16.102-6.098-25.164-6.098h-16.066c-30.418,0-55.164,24.746-55.164,55.164v31.266
		c-7.555-3.887-16.105-6.098-25.168-6.098h-16.062c-30.422,0-55.168,24.746-55.168,55.164v31.266
		c-7.551-3.891-16.102-6.102-25.164-6.102H55.164C24.746,401.652,0,426.398,0,456.816v40.164c0,8.285,6.715,15,15,15h481.98
		c8.285,0,15-6.715,15-15V215.829C511.98,185.411,487.234,160.661,456.816,160.661z M391.484,30h69.285l-14.559,14.559
		c-2.816,2.812-4.395,6.629-4.395,10.605c0,3.98,1.578,7.793,4.395,10.609l14.559,14.559h-69.285V30z M30,456.816
		c0-13.875,11.289-25.164,25.164-25.164H71.23c13.875,0,25.164,11.289,25.164,25.164v25.168H30V456.816z M126.395,456.816v-80.328
		c0-13.879,11.289-25.168,25.164-25.168h16.066c13.875,0,25.164,11.289,25.164,25.168v105.496h-66.395V456.816z M222.789,376.488
		v-80.332c0-13.875,11.293-25.164,25.168-25.164h16.066c13.875,0,25.164,11.289,25.164,25.164v185.828h-66.398V376.488z
		 M481.98,481.984H319.188V215.829c0-13.879,11.289-25.168,25.164-25.168h112.465c13.875,0,25.164,11.289,25.164,25.168V481.984z"/>
</g>
</svg>
